<svg width="28" height="28" viewBox="0 0 28 28" fill="none" xmlns="http://www.w3.org/2000/svg">
<g id=" Round / Device / access_alarm">
<path id="&#240;&#159;&#148;&#185;Icon Color" fill-rule="evenodd" clip-rule="evenodd" d="M18.5148 17.7917L14.5831 15.4583V10.1733C14.5831 9.70667 14.2098 9.33333 13.7431 9.33333H13.6731C13.2065 9.33333 12.8331 9.70667 12.8331 10.1733V15.68C12.8331 16.0883 13.0431 16.4733 13.4048 16.6833L17.6631 19.2383C18.0598 19.4717 18.5731 19.355 18.8065 18.9583C19.0515 18.55 18.9231 18.025 18.5148 17.7917ZM24.7098 5.845L21.1165 2.85833C20.6265 2.45 19.8915 2.50833 19.4715 3.01C19.0631 3.5 19.1331 4.235 19.6231 4.655L23.2048 7.64167C23.6948 8.05 24.4298 7.99167 24.8498 7.49C25.2698 7 25.1998 6.265 24.7098 5.845ZM4.78314 7.64167L8.3648 4.655C8.86647 4.235 8.93647 3.5 8.51647 3.01C8.10814 2.50833 7.37314 2.45 6.88314 2.85833L3.2898 5.845C2.7998 6.265 2.7298 7 3.1498 7.49C3.55814 7.99167 4.29314 8.05 4.78314 7.64167ZM13.9998 4.66667C8.20147 4.66667 3.4998 9.36833 3.4998 15.1667C3.4998 20.965 8.20147 25.6667 13.9998 25.6667C19.7981 25.6667 24.4998 20.965 24.4998 15.1667C24.4998 9.36833 19.7981 4.66667 13.9998 4.66667ZM13.9998 23.3333C9.49647 23.3333 5.83314 19.67 5.83314 15.1667C5.83314 10.6633 9.49647 7 13.9998 7C18.5031 7 22.1665 10.6633 22.1665 15.1667C22.1665 19.67 18.5031 23.3333 13.9998 23.3333Z" fill="white"/>
</g>
</svg>
