<svg width="51" height="51" viewBox="0 0 51 51" fill="none" xmlns="http://www.w3.org/2000/svg">
<path fill-rule="evenodd" clip-rule="evenodd" d="M34.843 18.4947C32.41 12.4729 27.4008 9.63504 22.5973 10.1162C22.2791 9.77654 21.882 9.50166 21.4209 9.32268C19.8455 8.71112 18.0661 9.43004 17.3577 10.9643C17.1508 11.4124 17.0561 11.8849 17.0627 12.3493C13.2653 15.3367 11.6341 20.8468 14.0741 26.8859C15.6527 30.7932 15.7496 33.301 14.9323 35.4768C14.7957 35.8406 14.3806 36.7152 14.0995 37.3077L14.0994 37.3077C13.9664 37.588 13.8634 37.8051 13.834 37.8751L13.5818 38.4809L15.6257 43.5398L24.6572 39.8909C25.5992 41.343 26.8799 42.0517 28.807 42.3705C31.1777 42.7627 33.5686 41.7966 35.0015 39.8678C36.0295 38.484 36.4273 36.8348 36.2082 35.2239L45.2956 31.5524L43.2517 26.4935L42.6495 26.2329C42.5861 26.2055 42.3706 26.1241 42.0888 26.0176L42.0884 26.0175L42.0878 26.0173L42.0877 26.0172C41.4753 25.7859 40.5507 25.4367 40.1939 25.2664C38.0906 24.2619 36.4161 22.3883 34.843 18.4947ZM33.0371 36.5052L27.7587 38.6378C28.1258 38.943 28.602 39.0931 29.3293 39.2134C30.517 39.4099 31.7149 38.9259 32.4327 37.9595C32.7651 37.512 32.966 37.0165 33.0371 36.5052ZM38.8149 28.154C39.2649 28.3688 40.1858 28.7218 40.7929 28.9502L41.1299 29.7842L17.394 39.3741L17.0573 38.5408C17.3339 37.9609 17.7534 37.0669 17.928 36.602C19.0385 33.6454 18.9098 30.3124 17.0411 25.6871C14.7754 20.0794 16.9129 15.4063 20.8697 13.8077C24.8154 12.2135 29.6171 14.1025 31.876 19.6934C33.7387 24.3038 35.9622 26.7916 38.8149 28.154Z" fill="white"/>
</svg>
