<svg width="40" height="40" viewBox="0 0 40 40" fill="none" xmlns="http://www.w3.org/2000/svg">
<g id="24 / basic / thumbs-down">
<path id="icon" fill-rule="evenodd" clip-rule="evenodd" d="M26.895 25.9298L26.8949 25.9294C26.7681 25.5953 26.6376 25.2514 26.5913 25.1262C26.5753 25.0829 26.5599 25.0409 26.545 25H31.6667C34.7827 25 36.6667 22.8041 36.6667 20C36.6667 10.094 34.5919 3.33329 30 3.33329C30 3.33329 18.3719 3.33367 18.3315 3.33282C17.2347 3.31315 15.8424 3.46737 14.4385 3.96966C13.8251 4.18915 13.2607 4.46224 12.7549 4.78946C12.1547 3.91036 11.1448 3.33329 9.99999 3.33329H6.66666C4.82571 3.33329 3.33333 4.82568 3.33333 6.66663V21.6666C3.33333 23.5076 4.82571 25 6.66666 25H9.99999C10.3306 25 10.6499 24.9518 10.9514 24.8622C12.1129 26.5534 15.051 29.9108 17.4117 32.6083C18.6916 34.0709 19.8019 35.3396 20.3671 36.0435L20.8675 36.6666H21.6795C22.6913 36.6668 23.5705 36.5899 24.5805 36.2958C26.8198 35.6438 28.3333 34.12 28.3333 31.6666C28.3333 30.7998 28.1798 29.8756 27.897 28.8497C27.7099 28.171 27.4787 27.4857 27.1618 26.6351C27.1165 26.5135 27.0072 26.2255 26.895 25.9298ZM13.3333 21.6666V9.99996C13.3333 8.49624 14.0866 7.63584 15.5615 7.10816C16.5177 6.76602 17.5423 6.65253 18.276 6.66564C24.1204 6.66634 25.8384 6.66654 27.5564 6.6666L30 6.66663C31.6919 6.66663 33.3333 12.0154 33.3333 20C33.3333 21.0668 32.8187 21.6666 31.6667 21.6666H25C23.0091 21.6666 22.5926 23.206 23.0077 24.8728C23.1054 25.2649 23.2482 25.6963 23.4649 26.2824C23.517 26.4231 23.6577 26.7941 23.7889 27.1398L23.7897 27.142L23.7907 27.1446C23.8976 27.4264 23.9979 27.6906 24.0382 27.7989C24.324 28.566 24.5269 29.1673 24.6836 29.7356C24.8932 30.4961 25 31.139 25 31.6666C25 32.4182 24.6036 32.8173 23.6486 33.0954C23.2473 33.2122 22.8523 33.2766 22.4333 33.3081C21.5563 32.2597 20.3004 30.8269 19.0078 29.3522C16.5032 26.4947 13.8607 23.48 13.5695 22.8C13.4074 22.4214 13.3333 22.067 13.3333 21.6666ZM6.66666 21.6666V6.66663H9.99999V21.6666H6.66666Z" fill="#1C3554"/>
</g>
</svg>
