<svg width="161" height="32" viewBox="0 0 161 32" fill="none" xmlns="http://www.w3.org/2000/svg">
<path d="M0 10.665V16.5892C2.01585 16.5878 4.01219 16.9856 5.87479 17.7598C7.73739 18.534 9.4297 19.6695 10.8549 21.1012C12.2797 22.5324 13.4097 24.2316 14.1802 26.1017C14.9507 27.9717 15.3466 29.9759 15.3453 31.9997H21.2402C21.2349 26.3438 18.9955 20.921 15.0135 16.9212C11.0314 12.9215 5.632 10.6715 0 10.665H0Z" fill="white"/>
<path d="M29.4803 0H20.1382C24.8642 3.00768 28.8687 7.02862 31.8643 11.7743V2.39241C31.8639 1.75775 31.6125 1.14924 31.1655 0.700619C30.7184 0.252003 30.1123 -1.57043e-07 29.4803 0Z" fill="white"/>
<path d="M5.86977 0H0V5.33388C7.04017 5.34123 13.7899 8.15302 18.7681 13.1523C23.7464 18.1515 26.5465 24.9298 26.554 31.9999H31.8645V26.1052C30.6638 19.6265 27.5376 13.6648 22.8976 9.00502C18.2575 4.34523 12.321 1.20578 5.86977 0Z" fill="white"/>
<path d="M46.3136 3.52246H42.572V22.4613H46.3136V3.52246Z" fill="white"/>
<path d="M60.0706 11.7278C59.4477 11.1592 58.7186 10.7204 57.9256 10.4369C56.2221 9.83615 54.3656 9.83615 52.6621 10.4369C51.8688 10.7202 51.1394 11.159 50.5163 11.7278C49.9053 12.2935 49.4171 12.9799 49.0824 13.7438C48.7365 14.5772 48.5583 15.4712 48.5583 16.3741C48.5583 17.277 48.7365 18.171 49.0824 19.0044C49.4158 19.7706 49.9041 20.4588 50.5163 21.0255C51.1383 21.5947 51.8673 22.0333 52.6604 22.3156C54.3638 22.9174 56.2206 22.9174 57.924 22.3156C58.7174 22.0333 59.4466 21.5947 60.0689 21.0255C60.6809 20.4585 61.1691 19.7704 61.5028 19.0044C61.8488 18.171 62.0269 17.277 62.0269 16.3741C62.0269 15.4712 61.8488 14.5772 61.5028 13.7438C61.1684 12.9801 60.6809 12.2938 60.0706 11.7278ZM57.5013 18.6044C56.8954 19.1525 56.1089 19.4558 55.2935 19.4558C54.478 19.4558 53.6915 19.1525 53.0856 18.6044C52.5763 17.9731 52.2985 17.1853 52.2985 16.3728C52.2985 15.5604 52.5763 14.7726 53.0856 14.1413C53.6915 13.5932 54.478 13.2899 55.2935 13.2899C56.1089 13.2899 56.8954 13.5932 57.5013 14.1413C58.0106 14.7726 58.2884 15.5604 58.2884 16.3728C58.2884 17.1853 58.0106 17.9731 57.5013 18.6044Z" fill="white"/>
<path d="M73.5031 11.8901H73.4562C73.2831 11.6462 73.0822 11.4234 72.8575 11.2265C72.5852 10.9847 72.2838 10.7781 71.9602 10.6118C71.1424 10.1904 70.2346 9.97562 69.3155 9.98611C68.51 9.97194 67.7135 10.157 66.9961 10.5251C66.3276 10.8727 65.7374 11.3545 65.262 11.9406C64.7772 12.5448 64.4053 13.2321 64.1643 13.9693C63.9081 14.7287 63.7775 15.5252 63.7778 16.3271C63.7683 17.1879 63.912 18.0434 64.2021 18.8534C64.4649 19.5927 64.8746 20.2705 65.4062 20.8459C65.9359 21.4089 66.5787 21.8524 67.2921 22.1469C68.0677 22.4644 68.899 22.6219 69.7364 22.6101C70.3559 22.5993 70.9684 22.4764 71.5443 22.2471C72.1902 22.0011 72.7498 21.5697 73.1535 21.0067H73.2038V22.1856C73.2178 22.5789 73.1533 22.971 73.014 23.3387C72.8748 23.7065 72.6636 24.0426 72.3929 24.3271C72.0495 24.6322 71.648 24.8642 71.2127 25.009C70.7774 25.1537 70.3174 25.2082 69.8605 25.1692C69.1361 25.1774 68.4181 25.0322 67.7533 24.7431C67.0918 24.4463 66.4746 24.0586 65.9194 23.5911L63.8491 26.6943C64.6953 27.3788 65.6845 27.8627 66.7429 28.1098C67.7902 28.3517 68.8614 28.4734 69.936 28.4728C72.2973 28.4728 74.0557 27.8757 75.2112 26.6816C76.3668 25.4875 76.9448 23.7382 76.9453 21.4337V10.2867H73.5073L73.5031 11.8901ZM73.2784 17.4387C73.1308 17.7952 72.9145 18.1189 72.642 18.3911C72.3645 18.6688 72.0392 18.8936 71.6818 19.0547C71.3108 19.2202 70.9093 19.3057 70.5033 19.3057C70.0973 19.3057 69.6958 19.2202 69.3247 19.0547C68.9721 18.8914 68.6511 18.6667 68.3763 18.3911C68.1026 18.1165 67.8855 17.7905 67.7373 17.4315C67.5891 17.0726 67.5129 16.6879 67.5129 16.2994C67.5129 15.9108 67.5891 15.5261 67.7373 15.1672C67.8855 14.8082 68.1026 14.4822 68.3763 14.2076C68.6512 13.932 68.9722 13.7071 69.3247 13.5431C69.6959 13.3782 70.0974 13.293 70.5033 13.293C70.9092 13.293 71.3106 13.3782 71.6818 13.5431C72.0391 13.7048 72.3643 13.9299 72.642 14.2076C73.0536 14.623 73.3336 15.1515 73.4469 15.7265C73.5601 16.3014 73.5015 16.8971 73.2784 17.4387Z" fill="white"/>
<path d="M91.0015 11.7278C90.3786 11.1592 89.6496 10.7204 88.8565 10.4369C87.153 9.83615 85.2965 9.83615 83.593 10.4369C82.7997 10.7202 82.0703 11.159 81.4472 11.7278C80.8362 12.2935 80.348 12.9799 80.0133 13.7438C79.6674 14.5772 79.4893 15.4712 79.4893 16.3741C79.4893 17.277 79.6674 18.171 80.0133 19.0044C80.3468 19.7706 80.835 20.4588 81.4472 21.0255C82.0697 21.5949 82.7993 22.0335 83.593 22.3156C85.2964 22.9174 87.1532 22.9174 88.8565 22.3156C89.65 22.0333 90.3792 21.5947 91.0015 21.0255C91.6137 20.4588 92.102 19.7706 92.4354 19.0044C92.7814 18.171 92.9595 17.277 92.9595 16.3741C92.9595 15.4712 92.7814 14.5772 92.4354 13.7438C92.1007 12.9799 91.6126 12.2935 91.0015 11.7278ZM88.4322 18.6044C87.8264 19.1525 87.0398 19.4558 86.2244 19.4558C85.4089 19.4558 84.6224 19.1525 84.0165 18.6044C83.5073 17.9731 83.2294 17.1853 83.2294 16.3728C83.2294 15.5604 83.5073 14.7726 84.0165 14.1413C84.6224 13.5932 85.4089 13.2899 86.2244 13.2899C87.0398 13.2899 87.8264 13.5932 88.4322 14.1413C88.9415 14.7726 89.2193 15.5604 89.2193 16.3728C89.2193 17.1853 88.9415 17.9731 88.4322 18.6044Z" fill="white"/>
<path d="M97.9226 10.3711H95.916V22.4612H97.9226V10.3711Z" fill="white"/>
<path d="M96.92 4.17214C96.7254 4.16843 96.5322 4.20553 96.3528 4.28108C96.1733 4.35662 96.0115 4.46895 95.8777 4.61088C95.6737 4.81745 95.5351 5.08005 95.4795 5.36559C95.4238 5.65112 95.4536 5.94681 95.565 6.21539C95.6764 6.48396 95.8645 6.71341 96.1056 6.8748C96.3466 7.0362 96.6299 7.12233 96.9196 7.12233C97.2093 7.12233 97.4926 7.0362 97.7336 6.8748C97.9747 6.71341 98.1628 6.48396 98.2742 6.21539C98.3856 5.94681 98.4154 5.65112 98.3597 5.36559C98.3041 5.08005 98.1655 4.81745 97.9615 4.61088C97.8279 4.46889 97.6663 4.35651 97.4869 4.28096C97.3076 4.2054 97.1145 4.16834 96.92 4.17214Z" fill="white"/>
<path d="M112.766 11.8738C112.202 11.295 111.523 10.8415 110.773 10.5424C109.95 10.2167 109.072 10.0545 108.188 10.0649C107.354 10.0553 106.531 10.2413 105.782 10.6081C105.044 10.9764 104.391 11.4953 103.865 12.1314H103.811V10.3715H101.807V28.352H103.811V20.3184H103.862C104.288 21.0552 104.909 21.6591 105.656 22.0632C106.523 22.5507 107.504 22.7961 108.498 22.7739C109.311 22.7791 110.117 22.6163 110.865 22.2956C111.587 21.9879 112.239 21.5351 112.781 20.9651C113.331 20.3825 113.764 19.6985 114.055 18.9508C114.672 17.3195 114.672 15.5176 114.055 13.8864C113.761 13.1369 113.323 12.453 112.766 11.8738ZM112.058 18.1895C111.871 18.7159 111.579 19.1982 111.199 19.6065C110.819 20.0149 110.359 20.3405 109.849 20.5634C108.72 21.0275 107.455 21.0275 106.327 20.5634C105.816 20.3405 105.356 20.0146 104.975 19.6058C104.595 19.197 104.302 18.7141 104.115 18.187C103.721 17.0412 103.721 15.7959 104.115 14.6502C104.302 14.1231 104.595 13.6401 104.975 13.2314C105.356 12.8226 105.816 12.4966 106.327 12.2738C107.455 11.8096 108.72 11.8096 109.849 12.2738C110.36 12.4966 110.82 12.8226 111.2 13.2314C111.581 13.6401 111.874 14.1231 112.061 14.6502C112.455 15.7959 112.455 17.0412 112.061 18.187L112.058 18.1895Z" fill="white"/>
<path d="M124.625 16.421C124.244 16.1347 123.82 15.9123 123.368 15.7625C122.871 15.5944 122.364 15.4604 121.85 15.3616C121.464 15.2954 121.082 15.2094 120.705 15.104C120.369 15.0123 120.042 14.8912 119.727 14.7419C119.475 14.627 119.248 14.4647 119.057 14.2635C118.894 14.0837 118.807 13.8479 118.813 13.605C118.809 13.343 118.885 13.086 119.031 12.869C119.176 12.6547 119.364 12.474 119.584 12.3393C119.819 12.1965 120.076 12.0919 120.344 12.0294C120.618 11.9613 120.9 11.9265 121.182 11.9259C121.72 11.9091 122.252 12.0482 122.713 12.3267C123.129 12.5898 123.477 12.9482 123.729 13.3726L125.401 12.2619C125.031 11.5277 124.429 10.9371 123.69 10.5819C122.945 10.2344 122.132 10.058 121.311 10.0657C120.754 10.0643 120.2 10.1426 119.665 10.2981C119.152 10.4449 118.665 10.6723 118.223 10.9718C117.8 11.2584 117.448 11.6383 117.194 12.0825C116.931 12.5555 116.798 13.0903 116.809 13.632C116.788 14.1622 116.907 14.6886 117.156 15.157C117.382 15.5488 117.698 15.8808 118.078 16.1254C118.497 16.3909 118.952 16.5953 119.428 16.7326C119.943 16.8875 120.483 17.0254 121.049 17.1461C121.375 17.2151 121.693 17.2926 122.001 17.3785C122.29 17.4564 122.567 17.5737 122.824 17.7271C123.051 17.8622 123.248 18.0425 123.403 18.2568C123.557 18.4942 123.634 18.7743 123.622 19.0576C123.631 19.3554 123.55 19.6489 123.39 19.8997C123.231 20.1375 123.02 20.3361 122.773 20.4808C122.506 20.6405 122.215 20.7543 121.911 20.8176C121.603 20.8857 121.288 20.9204 120.972 20.9212C120.347 20.9455 119.727 20.7932 119.184 20.4816C118.684 20.1623 118.245 19.7569 117.885 19.2842L116.292 20.5246C116.785 21.2938 117.485 21.9069 118.311 22.293C119.158 22.6304 120.063 22.7931 120.974 22.7713C121.567 22.7718 122.158 22.7026 122.734 22.565C123.283 22.4376 123.806 22.2147 124.278 21.9065C124.729 21.6057 125.103 21.2016 125.368 20.7275C125.656 20.1895 125.799 19.5849 125.781 18.9743C125.797 18.4493 125.692 17.9278 125.472 17.4509C125.273 17.0466 124.983 16.6942 124.625 16.421Z" fill="white"/>
<path d="M139.082 19.5938V10.3711H137.075V16.2658C137.082 16.9013 137.008 17.5351 136.857 18.1521C136.728 18.6811 136.5 19.1806 136.186 19.6241C135.887 20.0365 135.488 20.3654 135.028 20.5799C134.498 20.8162 133.923 20.9312 133.343 20.9167C132.951 20.9486 132.557 20.8854 132.195 20.7326C131.832 20.5797 131.511 20.3417 131.259 20.0384C130.777 19.3341 130.541 18.4892 130.588 17.6359V10.3711H128.582V17.8372C128.576 18.514 128.667 19.1881 128.852 19.8389C129.013 20.4158 129.3 20.9498 129.69 21.4026C130.082 21.8454 130.569 22.1912 131.116 22.4132C131.767 22.6684 132.462 22.7915 133.161 22.7753C133.631 22.7791 134.099 22.7135 134.551 22.5807C134.958 22.4616 135.347 22.288 135.708 22.0645C136.036 21.8615 136.334 21.6138 136.595 21.3285C136.829 21.0747 137.024 20.7872 137.174 20.4755H137.226C137.226 20.8207 137.234 21.1576 137.252 21.486C137.269 21.8144 137.277 22.1417 137.277 22.4679H139.181C139.181 22.071 139.164 21.6317 139.129 21.15C139.094 20.6683 139.079 20.1496 139.082 19.5938Z" fill="white"/>
<path d="M160.768 13.0195C160.634 12.4345 160.37 11.8875 159.996 11.4195C159.618 10.9667 159.131 10.6188 158.581 10.409C157.889 10.1581 157.156 10.0399 156.42 10.0604C155.622 10.0253 154.831 10.2373 154.156 10.6675C153.531 11.1183 153.005 11.6947 152.613 12.3602C152.511 12.153 152.377 11.9161 152.214 11.6494C152.032 11.3615 151.802 11.1078 151.533 10.9C151.202 10.6476 150.834 10.4487 150.442 10.3105C149.916 10.1328 149.363 10.0496 148.808 10.0646C148.338 10.0607 147.87 10.1262 147.419 10.2591C147.012 10.3782 146.623 10.5518 146.261 10.7753C145.933 10.9786 145.635 11.2263 145.374 11.5113C145.14 11.7651 144.945 12.0527 144.796 12.3644H144.744C144.744 12.0191 144.735 11.684 144.719 11.3538C144.702 11.0237 144.693 10.6995 144.693 10.372H142.789C142.789 10.7689 142.806 11.2082 142.84 11.6898C142.874 12.1715 142.891 12.6883 142.891 13.2402V22.462H144.9V16.5724C144.893 15.9366 144.967 15.3025 145.119 14.6852C145.247 14.1561 145.474 13.6564 145.789 13.2132C146.088 12.8007 146.486 12.4717 146.947 12.2574C147.477 12.021 148.052 11.9059 148.632 11.9206C148.975 11.8911 149.321 11.9535 149.632 12.1014C149.944 12.2493 150.211 12.4775 150.406 12.7627C150.837 13.6487 151.024 14.6344 150.947 15.6174V22.4637H152.95V15.486C152.944 14.9888 153.027 14.4945 153.194 14.0267C153.343 13.6119 153.571 13.2303 153.865 12.9033C154.143 12.5972 154.48 12.351 154.856 12.18C155.235 12.0073 155.648 11.9191 156.065 11.9214C156.56 11.9034 157.053 12.0005 157.505 12.2052C157.862 12.3781 158.17 12.6356 158.405 12.9555C158.631 13.2722 158.789 13.6327 158.869 14.0141C158.955 14.4131 158.998 14.8202 158.997 15.2284V22.462H161V15.1248C161.007 14.4162 160.929 13.7094 160.768 13.0195Z" fill="white"/>
</svg>
