<svg width="50" height="50" viewBox="0 0 50 50" fill="none" xmlns="http://www.w3.org/2000/svg">
<path fill-rule="evenodd" clip-rule="evenodd" d="M26.3728 7.3321C24.1894 8.10526 22.8741 8.86377 21.5404 10.2248C21.0466 10.7287 20.6108 11.2793 20.2359 11.8744C19.5982 11.6638 18.9412 11.5184 18.2683 11.438C16.3355 11.2069 14.755 11.4462 12.65 12.1916C7.01204 14.1881 4.56926 20.3103 6.7177 26.3773C8.3402 30.9591 12.4622 34.4804 18.7362 37.0751C22.0294 38.437 26.0057 39.5308 28.7084 39.9047L30.2547 40.1187L31.3218 38.9793C33.1869 36.9878 35.5887 33.6354 37.2909 30.5045C40.5338 24.5397 41.5212 19.2091 39.8987 14.6273C37.773 8.62451 31.9686 5.37658 26.3728 7.3321ZM36.8822 15.6955C38.1534 19.2851 37.3292 23.7345 34.4795 28.976C32.9259 31.8338 30.7207 34.9207 29.0517 36.7215C26.6214 36.3723 22.965 35.3611 19.9591 34.118C14.4459 31.8379 11.0053 28.8987 9.73415 25.3091C8.14675 20.8264 9.84063 16.5812 13.7181 15.2081C15.3919 14.6154 16.4935 14.4486 17.8884 14.6153C18.7124 14.7138 19.4942 14.9523 20.2332 15.3346L21.7622 16.1254L22.4393 14.5428C22.7771 13.7534 23.24 13.0624 23.8259 12.4645C24.7784 11.4925 25.6821 10.9714 27.4348 10.3508C31.27 9.0105 35.3169 11.275 36.8822 15.6955Z" fill="white"/>
</svg>
