<svg width="40" height="40" viewBox="0 0 40 40" fill="none" xmlns="http://www.w3.org/2000/svg">
<path fill-rule="evenodd" clip-rule="evenodd" d="M36.6667 19.9985C36.6667 17.1943 34.7827 14.9985 31.6667 14.9985H26.545C26.5599 14.9575 26.5753 14.9155 26.5913 14.8722C26.6377 14.7469 26.7682 14.4028 26.8951 14.0685C27.0073 13.7728 27.1165 13.4849 27.1618 13.3633C27.4787 12.5127 27.7099 11.8274 27.897 11.1487C28.1798 10.1228 28.3333 9.19864 28.3333 8.33179C28.3333 5.87844 26.8198 4.35465 24.5805 3.7026C23.5705 3.4085 22.6913 3.33163 21.6667 3.33179H20.8675L20.3671 3.95493C19.8019 4.65885 18.6917 5.9275 17.4117 7.39012C15.0504 10.0883 12.1115 13.4466 10.9506 15.1375C10.6494 15.048 10.3303 14.9999 10 14.9999H6.66667C4.82572 14.9999 3.33334 16.4923 3.33334 18.3333V33.3333C3.33334 35.1742 4.82572 36.6666 6.66667 36.6666H10C11.1452 36.6666 12.1555 36.0891 12.7556 35.2094C13.2612 35.5364 13.8254 35.8094 14.4385 36.0288C15.8424 36.531 17.2347 36.6853 18.3907 36.6641L30 36.6651C34.5919 36.6651 36.6667 29.9044 36.6667 19.9985ZM15.5615 32.8903C14.0866 32.3626 13.3333 31.5022 13.3333 29.9985V18.3333V18.3318C13.3333 17.9315 13.4074 17.577 13.5695 17.1984C13.8608 16.5185 16.5032 13.5037 19.0078 10.6463C20.3004 9.17151 21.5563 7.73866 22.4333 6.69034C22.8523 6.72177 23.2473 6.78617 23.6486 6.90301C24.6036 7.18111 25 7.58016 25 8.33179C25 8.85942 24.8932 9.50231 24.6836 10.2628C24.5269 10.8311 24.324 11.4324 24.0382 12.1996C23.9977 12.3084 23.8965 12.5751 23.7889 12.8586C23.6577 13.2044 23.517 13.5753 23.4649 13.716C23.2482 14.3021 23.1054 14.7336 23.0078 15.1256C22.5926 16.7924 23.0091 18.3318 25 18.3318H31.6667C32.8187 18.3318 33.3333 18.9316 33.3333 19.9985C33.3333 27.983 31.6919 33.3318 30 33.3318H18.3333L18.2718 33.3328C17.5423 33.3459 16.5177 33.2324 15.5615 32.8903ZM6.66667 33.3333V18.3333H10V33.3333H6.66667Z" fill="#1C3554"/>
</svg>
