<svg width="161" height="32" viewBox="0 0 161 32" fill="none" xmlns="http://www.w3.org/2000/svg">
<g id="Logo">
<path id="Vector" d="M0 10.6653V16.5895C2.01585 16.5881 4.01219 16.9859 5.87479 17.7601C7.73739 18.5343 9.4297 19.6697 10.8549 21.1015C12.2797 22.5327 13.4097 24.2319 14.1802 26.1019C14.9507 27.9719 15.3466 29.9762 15.3453 32H21.2402C21.2349 26.344 18.9955 20.9212 15.0135 16.9215C11.0314 12.9217 5.632 10.6717 0 10.6653H0Z" fill="#021934"/>
<path id="Vector_2" d="M29.4803 0H20.1382C24.8642 3.00768 28.8687 7.02862 31.8643 11.7743V2.39241C31.8639 1.75775 31.6125 1.14924 31.1655 0.700619C30.7184 0.252003 30.1123 -1.57043e-07 29.4803 0Z" fill="#021934"/>
<path id="Vector_3" d="M5.86977 0H0V5.33388C7.04017 5.34123 13.7899 8.15302 18.7681 13.1523C23.7464 18.1515 26.5465 24.9298 26.554 31.9999H31.8645V26.1052C30.6638 19.6265 27.5376 13.6648 22.8976 9.00502C18.2575 4.34523 12.321 1.20578 5.86977 0Z" fill="#021934"/>
<path id="Vector_4" d="M46.3133 3.52246H42.5718V22.4613H46.3133V3.52246Z" fill="#021934"/>
<path id="Vector_5" d="M60.0706 11.7281C59.4477 11.1594 58.7186 10.7206 57.9256 10.4371C56.2221 9.83639 54.3656 9.83639 52.6621 10.4371C51.8688 10.7204 51.1394 11.1593 50.5163 11.7281C49.9053 12.2938 49.4171 12.9801 49.0824 13.7441C48.7365 14.5775 48.5583 15.4714 48.5583 16.3744C48.5583 17.2773 48.7365 18.1713 49.0824 19.0047C49.4158 19.7708 49.9041 20.459 50.5163 21.0257C51.1383 21.5949 51.8673 22.0336 52.6604 22.3158C54.3638 22.9176 56.2206 22.9176 57.924 22.3158C58.7174 22.0336 59.4466 21.5949 60.0689 21.0257C60.6809 20.4588 61.1691 19.7706 61.5028 19.0047C61.8488 18.1713 62.0269 17.2773 62.0269 16.3744C62.0269 15.4714 61.8488 14.5775 61.5028 13.7441C61.1684 12.9804 60.6809 12.2941 60.0706 11.7281ZM57.5013 18.6047C56.8954 19.1528 56.1089 19.4561 55.2935 19.4561C54.478 19.4561 53.6915 19.1528 53.0856 18.6047C52.5763 17.9734 52.2985 17.1856 52.2985 16.3731C52.2985 15.5606 52.5763 14.7728 53.0856 14.1415C53.6915 13.5934 54.478 13.2901 55.2935 13.2901C56.1089 13.2901 56.8954 13.5934 57.5013 14.1415C58.0106 14.7728 58.2884 15.5606 58.2884 16.3731C58.2884 17.1856 58.0106 17.9734 57.5013 18.6047Z" fill="#021934"/>
<path id="Vector_6" d="M73.5031 11.8903H73.4562C73.2831 11.6464 73.0822 11.4237 72.8575 11.2268C72.5852 10.9849 72.2838 10.7784 71.9602 10.612C71.1424 10.1906 70.2346 9.97586 69.3155 9.98635C68.51 9.97219 67.7135 10.1573 66.9961 10.5253C66.3276 10.8729 65.7374 11.3547 65.262 11.9409C64.7772 12.545 64.4053 13.2323 64.1643 13.9695C63.9081 14.729 63.7775 15.5255 63.7778 16.3274C63.7683 17.1881 63.912 18.0437 64.2021 18.8537C64.4649 19.5929 64.8746 20.2708 65.4062 20.8461C65.9359 21.4091 66.5787 21.8526 67.2921 22.1472C68.0677 22.4646 68.899 22.6221 69.7364 22.6103C70.3559 22.5996 70.9684 22.4766 71.5443 22.2474C72.1902 22.0013 72.7498 21.57 73.1535 21.0069H73.2038V22.1859C73.2178 22.5791 73.1533 22.9712 73.014 23.339C72.8748 23.7068 72.6636 24.0428 72.3929 24.3274C72.0495 24.6325 71.648 24.8645 71.2127 25.0092C70.7774 25.1539 70.3174 25.2085 69.8605 25.1695C69.1361 25.1776 68.4181 25.0324 67.7533 24.7434C67.0918 24.4465 66.4746 24.0588 65.9194 23.5914L63.8491 26.6945C64.6953 27.379 65.6845 27.8629 66.7429 28.1101C67.7902 28.3519 68.8614 28.4737 69.936 28.473C72.2973 28.473 74.0557 27.876 75.2112 26.6819C76.3668 25.4878 76.9448 23.7384 76.9453 21.4339V10.287H73.5073L73.5031 11.8903ZM73.2784 17.439C73.1308 17.7954 72.9145 18.1191 72.642 18.3914C72.3645 18.669 72.0392 18.8939 71.6818 19.055C71.3108 19.2204 70.9093 19.3059 70.5033 19.3059C70.0973 19.3059 69.6958 19.2204 69.3247 19.055C68.9721 18.8916 68.6511 18.667 68.3763 18.3914C68.1026 18.1168 67.8855 17.7907 67.7373 17.4318C67.5891 17.0729 67.5129 16.6881 67.5129 16.2996C67.5129 15.9111 67.5891 15.5263 67.7373 15.1674C67.8855 14.8085 68.1026 14.4824 68.3763 14.2078C68.6512 13.9322 68.9722 13.7073 69.3247 13.5434C69.6959 13.3785 70.0974 13.2933 70.5033 13.2933C70.9092 13.2933 71.3106 13.3785 71.6818 13.5434C72.0391 13.7051 72.3643 13.9302 72.642 14.2078C73.0536 14.6233 73.3336 15.1518 73.4469 15.7267C73.5601 16.3016 73.5015 16.8974 73.2784 17.439Z" fill="#021934"/>
<path id="Vector_7" d="M91.0015 11.7281C90.3786 11.1594 89.6496 10.7206 88.8565 10.4371C87.153 9.83639 85.2965 9.83639 83.593 10.4371C82.7997 10.7204 82.0703 11.1593 81.4472 11.7281C80.8362 12.2938 80.348 12.9801 80.0133 13.7441C79.6674 14.5775 79.4893 15.4714 79.4893 16.3744C79.4893 17.2773 79.6674 18.1713 80.0133 19.0047C80.3468 19.7708 80.835 20.459 81.4472 21.0257C82.0697 21.5951 82.7993 22.0338 83.593 22.3158C85.2964 22.9176 87.1532 22.9176 88.8565 22.3158C89.65 22.0336 90.3792 21.5949 91.0015 21.0257C91.6137 20.459 92.102 19.7708 92.4354 19.0047C92.7814 18.1713 92.9595 17.2773 92.9595 16.3744C92.9595 15.4714 92.7814 14.5775 92.4354 13.7441C92.1007 12.9801 91.6126 12.2938 91.0015 11.7281ZM88.4322 18.6047C87.8264 19.1528 87.0398 19.4561 86.2244 19.4561C85.4089 19.4561 84.6224 19.1528 84.0165 18.6047C83.5073 17.9734 83.2294 17.1856 83.2294 16.3731C83.2294 15.5606 83.5073 14.7728 84.0165 14.1415C84.6224 13.5934 85.4089 13.2901 86.2244 13.2901C87.0398 13.2901 87.8264 13.5934 88.4322 14.1415C88.9415 14.7728 89.2193 15.5606 89.2193 16.3731C89.2193 17.1856 88.9415 17.9734 88.4322 18.6047Z" fill="#021934"/>
<path id="Vector_8" d="M97.9226 10.3713H95.916V22.4614H97.9226V10.3713Z" fill="#021934"/>
<path id="Vector_9" d="M96.92 4.1719C96.7254 4.16818 96.5322 4.20529 96.3528 4.28083C96.1733 4.35638 96.0115 4.46871 95.8777 4.61063C95.6737 4.81721 95.5351 5.07981 95.4795 5.36535C95.4238 5.65088 95.4536 5.94657 95.565 6.21514C95.6764 6.48372 95.8645 6.71316 96.1056 6.87456C96.3466 7.03596 96.6299 7.12208 96.9196 7.12208C97.2093 7.12208 97.4926 7.03596 97.7336 6.87456C97.9747 6.71316 98.1628 6.48372 98.2742 6.21514C98.3856 5.94657 98.4154 5.65088 98.3597 5.36535C98.3041 5.07981 98.1655 4.81721 97.9615 4.61063C97.8279 4.46865 97.6663 4.35627 97.4869 4.28072C97.3076 4.20516 97.1145 4.16809 96.92 4.1719Z" fill="#021934"/>
<path id="Vector_10" d="M112.766 11.8738C112.202 11.295 111.523 10.8415 110.773 10.5424C109.95 10.2167 109.072 10.0545 108.188 10.0649C107.354 10.0553 106.531 10.2413 105.782 10.6081C105.044 10.9764 104.391 11.4953 103.865 12.1314H103.811V10.3715H101.807V28.352H103.811V20.3184H103.862C104.288 21.0552 104.909 21.6591 105.656 22.0632C106.523 22.5507 107.504 22.7961 108.498 22.7739C109.311 22.7791 110.117 22.6163 110.865 22.2956C111.587 21.9879 112.239 21.5351 112.781 20.9651C113.331 20.3825 113.764 19.6985 114.055 18.9508C114.672 17.3195 114.672 15.5176 114.055 13.8864C113.761 13.1369 113.323 12.453 112.766 11.8738ZM112.058 18.1895C111.871 18.7159 111.579 19.1982 111.199 19.6065C110.819 20.0149 110.359 20.3405 109.849 20.5634C108.72 21.0275 107.455 21.0275 106.327 20.5634C105.816 20.3405 105.356 20.0146 104.975 19.6058C104.595 19.197 104.302 18.7141 104.115 18.187C103.721 17.0412 103.721 15.7959 104.115 14.6502C104.302 14.1231 104.595 13.6401 104.975 13.2314C105.356 12.8226 105.816 12.4966 106.327 12.2738C107.455 11.8096 108.72 11.8096 109.849 12.2738C110.36 12.4966 110.82 12.8226 111.2 13.2314C111.581 13.6401 111.874 14.1231 112.061 14.6502C112.455 15.7959 112.455 17.0412 112.061 18.187L112.058 18.1895Z" fill="#021934"/>
<path id="Vector_11" d="M124.625 16.421C124.244 16.1347 123.82 15.9123 123.368 15.7625C122.871 15.5944 122.364 15.4604 121.85 15.3616C121.464 15.2954 121.082 15.2094 120.705 15.104C120.369 15.0123 120.042 14.8912 119.727 14.7419C119.475 14.627 119.248 14.4647 119.057 14.2635C118.894 14.0837 118.807 13.8479 118.813 13.605C118.809 13.343 118.885 13.086 119.031 12.869C119.176 12.6547 119.364 12.474 119.584 12.3393C119.819 12.1965 120.076 12.0919 120.344 12.0294C120.618 11.9613 120.9 11.9265 121.182 11.9259C121.72 11.9091 122.252 12.0482 122.713 12.3267C123.129 12.5898 123.477 12.9482 123.729 13.3726L125.401 12.2619C125.031 11.5277 124.429 10.9371 123.69 10.5819C122.945 10.2344 122.132 10.058 121.311 10.0657C120.754 10.0643 120.2 10.1426 119.665 10.2981C119.152 10.4449 118.665 10.6723 118.223 10.9718C117.8 11.2584 117.448 11.6383 117.194 12.0825C116.931 12.5555 116.798 13.0903 116.809 13.632C116.788 14.1622 116.907 14.6886 117.156 15.157C117.382 15.5488 117.698 15.8808 118.078 16.1254C118.497 16.3909 118.952 16.5953 119.428 16.7326C119.943 16.8875 120.483 17.0254 121.049 17.1461C121.375 17.2151 121.693 17.2926 122.001 17.3785C122.29 17.4564 122.567 17.5737 122.824 17.7271C123.051 17.8622 123.248 18.0425 123.403 18.2568C123.557 18.4942 123.634 18.7743 123.622 19.0576C123.631 19.3554 123.55 19.6489 123.39 19.8997C123.231 20.1375 123.02 20.3361 122.773 20.4808C122.506 20.6405 122.215 20.7543 121.911 20.8176C121.603 20.8857 121.288 20.9204 120.972 20.9212C120.347 20.9455 119.727 20.7932 119.184 20.4816C118.684 20.1623 118.245 19.7569 117.885 19.2842L116.292 20.5246C116.785 21.2938 117.485 21.9069 118.311 22.293C119.158 22.6304 120.063 22.7931 120.974 22.7713C121.567 22.7718 122.158 22.7026 122.734 22.565C123.283 22.4376 123.806 22.2147 124.278 21.9065C124.729 21.6057 125.103 21.2016 125.368 20.7275C125.656 20.1895 125.799 19.5849 125.781 18.9743C125.797 18.4493 125.692 17.9278 125.472 17.4509C125.273 17.0466 124.983 16.6942 124.625 16.421Z" fill="#021934"/>
<path id="Vector_12" d="M139.082 19.594V10.3713H137.075V16.2661C137.082 16.9016 137.008 17.5353 136.857 18.1524C136.728 18.6813 136.5 19.1808 136.186 19.6244C135.887 20.0367 135.488 20.3657 135.028 20.5801C134.498 20.8164 133.923 20.9315 133.343 20.917C132.951 20.9488 132.557 20.8856 132.195 20.7328C131.832 20.58 131.511 20.3419 131.259 20.0387C130.777 19.3344 130.541 18.4895 130.588 17.6362V10.3713H128.582V17.8374C128.576 18.5142 128.667 19.1883 128.852 19.8391C129.013 20.416 129.3 20.95 129.69 21.4029C130.082 21.8456 130.569 22.1915 131.116 22.4134C131.767 22.6686 132.462 22.7917 133.161 22.7755C133.631 22.7793 134.099 22.7138 134.551 22.581C134.958 22.4619 135.347 22.2883 135.708 22.0648C136.036 21.8618 136.334 21.6141 136.595 21.3288C136.829 21.0749 137.024 20.7874 137.174 20.4757H137.226C137.226 20.821 137.234 21.1578 137.252 21.4862C137.269 21.8147 137.277 22.142 137.277 22.4681H139.181C139.181 22.0712 139.164 21.6319 139.129 21.1502C139.094 20.6686 139.079 20.1498 139.082 19.594Z" fill="#021934"/>
<path id="Vector_13" d="M160.768 13.0198C160.634 12.4348 160.37 11.8878 159.996 11.4198C159.618 10.967 159.131 10.619 158.581 10.4093C157.889 10.1583 157.156 10.0401 156.42 10.0606C155.622 10.0256 154.831 10.2375 154.156 10.6678C153.531 11.1185 153.005 11.6949 152.613 12.3604C152.511 12.1532 152.377 11.9163 152.214 11.6497C152.032 11.3617 151.802 11.1081 151.533 10.9002C151.202 10.6479 150.834 10.449 150.442 10.3107C149.916 10.1331 149.363 10.0498 148.808 10.0648C148.338 10.0609 147.87 10.1265 147.419 10.2594C147.012 10.3785 146.623 10.5521 146.261 10.7756C145.933 10.9788 145.635 11.2265 145.374 11.5116C145.14 11.7654 144.945 12.0529 144.796 12.3646H144.744C144.744 12.0194 144.735 11.6842 144.719 11.3541C144.702 11.024 144.693 10.6998 144.693 10.3722H142.789C142.789 10.7691 142.806 11.2084 142.84 11.6901C142.874 12.1718 142.891 12.6885 142.891 13.2404V22.4623H144.9V16.5726C144.893 15.9368 144.967 15.3028 145.119 14.6855C145.247 14.1563 145.474 13.6567 145.789 13.2135C146.088 12.801 146.486 12.472 146.947 12.2577C147.477 12.0212 148.052 11.9062 148.632 11.9208C148.975 11.8914 149.321 11.9538 149.632 12.1017C149.944 12.2496 150.211 12.4777 150.406 12.7629C150.837 13.649 151.024 14.6347 150.947 15.6177V22.464H152.95V15.4863C152.944 14.9891 153.027 14.4948 153.194 14.0269C153.343 13.6122 153.571 13.2306 153.865 12.9036C154.143 12.5974 154.48 12.3513 154.856 12.1802C155.235 12.0075 155.648 11.9193 156.065 11.9217C156.56 11.9036 157.053 12.0007 157.505 12.2055C157.862 12.3783 158.17 12.6359 158.405 12.9558C158.631 13.2725 158.789 13.6329 158.869 14.0143C158.955 14.4133 158.998 14.8204 158.997 15.2286V22.4623H161V15.125C161.007 14.4165 160.929 13.7096 160.768 13.0198Z" fill="#021934"/>
</g>
</svg>
