<svg width="28" height="28" viewBox="0 0 28 28" fill="none" xmlns="http://www.w3.org/2000/svg">
<g id="24 / basic / user">
<path id="icon" fill-rule="evenodd" clip-rule="evenodd" d="M14.0001 26.8334C6.91243 26.8334 1.16675 21.0877 1.16675 14.0001C1.16675 6.91243 6.91243 1.16675 14.0001 1.16675C21.0877 1.16675 26.8334 6.91243 26.8334 14.0001C26.8334 21.0877 21.0877 26.8334 14.0001 26.8334ZM22.6328 19.9788C23.8101 18.2821 24.5001 16.2217 24.5001 14.0001C24.5001 8.20109 19.7991 3.50008 14.0001 3.50008C8.20109 3.50008 3.50008 8.20109 3.50008 14.0001C3.50008 16.2217 4.19003 18.2821 5.36734 19.9788C6.68036 18.2445 9.76579 17.5001 14.0001 17.5001C18.2344 17.5001 21.3198 18.2445 22.6328 19.9788ZM20.9589 21.8631C20.6174 20.6353 18.1644 19.8334 14.0001 19.8334C9.8358 19.8334 7.38275 20.6353 7.04129 21.8631C8.89393 23.504 11.3307 24.5001 14.0001 24.5001C16.6695 24.5001 19.1062 23.504 20.9589 21.8631ZM14.0001 17.5001C11.3878 17.5001 9.33342 15.6654 9.33342 11.6667C9.33342 9.04847 11.1757 7.00008 14.0001 7.00008C16.8166 7.00008 18.6667 9.24192 18.6667 11.9001C18.6667 15.7263 16.5878 17.5001 14.0001 17.5001ZM11.6667 11.6667C11.6667 14.3142 12.6213 15.1667 14.0001 15.1667C15.3741 15.1667 16.3334 14.3482 16.3334 11.9001C16.3334 10.4422 15.4183 9.33342 14.0001 9.33342C12.5228 9.33342 11.6667 10.2852 11.6667 11.6667Z" fill="white"/>
</g>
</svg>
