<svg width="53" height="53" viewBox="0 0 53 53" fill="none" xmlns="http://www.w3.org/2000/svg">
<g id="24 / security / verified">
<path id="icon" fill-rule="evenodd" clip-rule="evenodd" d="M9.58308 31.3529C9.00665 29.3426 9.72916 27.1641 11.5696 24.8004C10.3081 22.0832 10.0941 19.798 11.108 17.969C12.1218 16.1399 14.1732 15.1104 17.146 14.7404C18.1752 11.927 19.6398 10.1599 21.6501 9.58343C23.6603 9.00701 25.8388 9.72952 28.2025 11.57C30.9197 10.3084 33.2049 10.0945 35.0339 11.1083C36.863 12.1222 37.8925 14.1735 38.2625 17.1463C41.0759 18.1756 42.8431 19.6402 43.4195 21.6504C43.9959 23.6607 43.2734 25.8392 41.4329 28.2029C42.6945 30.92 42.9085 33.2052 41.8946 35.0343C40.8807 36.8633 38.8294 37.8929 35.8566 38.2629C34.8273 41.0763 33.3627 42.8434 31.3525 43.4199C29.3423 43.9963 27.1638 43.2738 24.8 41.4333C22.0829 42.6949 19.7977 42.9088 17.9686 41.895C16.1396 40.8811 15.11 38.8298 14.74 35.857C11.9267 34.8277 10.1595 33.3631 9.58308 31.3529ZM16.6989 33.1382C17.3344 33.3315 17.7844 33.8972 17.8297 34.5599C18.0067 37.1474 18.6351 38.6056 19.52 39.0962C20.405 39.5867 21.9746 39.3469 24.2627 38.1257C24.8487 37.813 25.567 37.8949 26.0676 38.3314C28.0224 40.0359 29.4979 40.6227 30.4705 40.3438C31.4431 40.0649 32.3834 38.7854 33.1379 36.304C33.3311 35.6685 33.8969 35.2185 34.5595 35.1732C37.147 34.9962 38.6053 34.3678 39.0958 33.4829C39.5863 32.598 39.3465 31.0283 38.1254 28.7402C37.8127 28.1542 37.8945 27.4359 38.331 26.9353C40.0356 24.9805 40.6223 23.5051 40.3435 22.5325C40.0646 21.5599 38.7851 20.6195 36.3037 19.8651C35.6682 19.6718 35.2181 19.1061 35.1728 18.4434C34.9959 15.8559 34.3675 14.3976 33.4825 13.9071C32.5976 13.4166 31.0279 13.6564 28.7398 14.8775C28.1538 15.1903 27.4356 15.1084 26.935 14.6719C24.9802 12.9674 23.5047 12.3806 22.5321 12.6595C21.5595 12.9384 20.6192 14.2179 19.8647 16.6993C19.6715 17.3348 19.1057 17.7848 18.4431 17.8301C15.8555 18.007 14.3973 18.6355 13.9068 19.5204C13.4162 20.4053 13.6561 21.975 14.8772 24.2631C15.1899 24.8491 15.1081 25.5673 14.6715 26.068C12.967 28.0227 12.3802 29.4982 12.6591 30.4708C12.938 31.4434 14.2175 32.3838 16.6989 33.1382ZM33.9849 23.8682L24.6475 26.5457L23.2174 21.5584L20.1414 22.4405L22.4535 30.5038L34.867 26.9443L33.9849 23.8682Z" fill="#FFF5F9"/>
</g>
</svg>
